<?xml version="1.0" standalone="no"?><!DOCTYPE svg PUBLIC "-//W3C//DTD SVG 1.1//EN" "http://www.w3.org/Graphics/SVG/1.1/DTD/svg11.dtd"><svg t="1634802035575" class="icon" viewBox="0 0 1024 1024" version="1.1" xmlns="http://www.w3.org/2000/svg" p-id="4165" xmlns:xlink="http://www.w3.org/1999/xlink" width="300" height="300"><defs><style type="text/css"></style></defs><path d="M858.656 864H165.344C109.472 864 64 818.56 64 762.688V261.312C64 205.44 109.472 160 165.344 160h693.312C914.528 160 960 205.44 960 261.312v501.376C960 818.56 914.528 864 858.656 864zM165.344 224C144.736 224 128 240.736 128 261.312v501.376C128 783.264 144.736 800 165.344 800h693.312C879.264 800 896 783.264 896 762.688V261.312C896 240.736 879.264 224 858.656 224H165.344zM800 416H224c-17.664 0-32-14.336-32-32s14.336-32 32-32h576c17.696 0 32 14.336 32 32s-14.304 32-32 32zM320 736h-96c-17.664 0-32-14.304-32-32s14.336-32 32-32h96c17.664 0 32 14.304 32 32s-14.336 32-32 32z" p-id="4166"></path></svg>
