<?xml version="1.0" standalone="no"?><!DOCTYPE svg PUBLIC "-//W3C//DTD SVG 1.1//EN" "http://www.w3.org/Graphics/SVG/1.1/DTD/svg11.dtd"><svg t="1615359824945" class="icon" viewBox="0 0 1024 1024" version="1.1" xmlns="http://www.w3.org/2000/svg" p-id="66338" xmlns:xlink="http://www.w3.org/1999/xlink" width="200" height="200"><defs><style type="text/css"></style></defs><path d="M661.377376 411.069935V475.664516H314.175312v395.654882h557.144086V475.664516h-48.447312V411.069935h48.447312c35.674839 0 64.594581 28.919742 64.59458 64.594581v395.654882c0 35.674839-28.919742 64.594581-64.59458 64.59458h-557.144086c-35.674839 0-64.600086-28.919742-64.600086-64.59458V475.664516c0-35.674839 28.925247-64.594581 64.600086-64.594581h347.202064z m48.447312-322.983913c35.674839 0 64.600086 28.919742 64.600086 64.59458v403.731269c0 35.674839-28.925247 64.594581-64.600086 64.594581H362.622624v-64.594581h347.202064V152.680602h-557.144086v403.731269h48.447312V621.006452h-48.447312c-35.674839 0-64.594581-28.919742-64.59458-64.594581V152.680602C88.086022 117.005763 117.005763 88.086022 152.680602 88.086022h557.144086z" fill="#3A3A3A" p-id="66339"></path></svg>