<?xml version="1.0" standalone="no"?><!DOCTYPE svg PUBLIC "-//W3C//DTD SVG 1.1//EN" "http://www.w3.org/Graphics/SVG/1.1/DTD/svg11.dtd"><svg t="1634631759986" class="icon" viewBox="0 0 1024 1024" version="1.1" xmlns="http://www.w3.org/2000/svg" p-id="11934" xmlns:xlink="http://www.w3.org/1999/xlink" width="300" height="300"><defs><style type="text/css"></style></defs><path d="M915.692 39.385H108.308c-15.754 0-29.539 13.784-29.539 29.538v98.462c0 15.753 13.785 29.538 29.539 29.538h807.384c15.754 0 29.539-13.785 29.539-29.538V68.923c0-15.754-13.785-29.538-29.539-29.538zM285.538 275.692h-177.23c-15.754 0-29.539 13.785-29.539 29.539v59.077c0 15.754 13.785 29.538 29.539 29.538h177.23c15.754 0 29.539-13.784 29.539-29.538V305.23c0-15.754-13.785-29.539-29.539-29.539z m315.077 0h-177.23c-15.754 0-29.539 13.785-29.539 29.539v59.077c0 15.754 13.785 29.538 29.539 29.538h177.23c15.754 0 29.539-13.784 29.539-29.538V305.23c0-15.754-13.785-29.539-29.539-29.539z m315.077 0h-177.23c-15.754 0-29.539 13.785-29.539 29.539v59.077c0 15.754 13.785 29.538 29.539 29.538h177.23c15.754 0 29.539-13.784 29.539-29.538V305.23c0-15.754-13.785-29.539-29.539-29.539zM285.538 472.615h-177.23c-15.754 0-29.539 13.785-29.539 29.539v59.077c0 15.754 13.785 29.538 29.539 29.538h177.23c15.754 0 29.539-13.784 29.539-29.538v-59.077c0-15.754-13.785-29.539-29.539-29.539z m315.077 0h-177.23c-15.754 0-29.539 13.785-29.539 29.539v59.077c0 15.754 13.785 29.538 29.539 29.538h177.23c15.754 0 29.539-13.784 29.539-29.538v-59.077c0-15.754-13.785-29.539-29.539-29.539z m315.077 0h-177.23c-15.754 0-29.539 13.785-29.539 29.539v59.077c0 15.754 13.785 29.538 29.539 29.538h177.23c15.754 0 29.539-13.784 29.539-29.538v-59.077c0-15.754-13.785-29.539-29.539-29.539zM285.538 669.538h-177.23c-15.754 0-29.539 13.785-29.539 29.539v59.077c0 15.754 13.785 29.538 29.539 29.538h177.23c15.754 0 29.539-13.784 29.539-29.538v-59.077c0-15.754-13.785-29.539-29.539-29.539z m315.077 0h-177.23c-15.754 0-29.539 13.785-29.539 29.539v59.077c0 15.754 13.785 29.538 29.539 29.538h177.23c15.754 0 29.539-13.784 29.539-29.538v-59.077c0-15.754-13.785-29.539-29.539-29.539z m315.077 0h-177.23c-15.754 0-29.539 13.785-29.539 29.539v59.077c0 15.754 13.785 29.538 29.539 29.538h177.23c15.754 0 29.539-13.784 29.539-29.538v-59.077c0-15.754-13.785-29.539-29.539-29.539zM285.538 866.462h-177.23c-15.754 0-29.539 13.784-29.539 29.538v59.077c0 15.754 13.785 29.538 29.539 29.538h177.23c15.754 0 29.539-13.784 29.539-29.538V896c0-15.754-13.785-29.538-29.539-29.538z m315.077 0h-177.23c-15.754 0-29.539 13.784-29.539 29.538v59.077c0 15.754 13.785 29.538 29.539 29.538h177.23c15.754 0 29.539-13.784 29.539-29.538V896c0-15.754-13.785-29.538-29.539-29.538z m315.077 0h-177.23c-15.754 0-29.539 13.784-29.539 29.538v59.077c0 15.754 13.785 29.538 29.539 29.538h177.23c15.754 0 29.539-13.784 29.539-29.538V896c0-15.754-13.785-29.538-29.539-29.538z" p-id="11935"></path></svg>