<?xml version="1.0" standalone="no"?><!DOCTYPE svg PUBLIC "-//W3C//DTD SVG 1.1//EN" "http://www.w3.org/Graphics/SVG/1.1/DTD/svg11.dtd"><svg t="1615349120101" class="icon" viewBox="0 0 1132 1024" version="1.1" xmlns="http://www.w3.org/2000/svg" p-id="47755" xmlns:xlink="http://www.w3.org/1999/xlink" width="221.09375" height="200"><defs><style type="text/css"></style></defs><path d="M1023.99488 1023.99488C1023.99488 1023.99488 107.788935 1023.99488 107.788935 1023.99488 48.262496 1023.99488 0 975.732384 0 916.205945 0 916.205945 0 350.314037 0 350.314037 0 350.314037 0 296.419571 0 296.419571 0 296.419571 0 188.630636 0 188.630636 0 129.104196 48.262496 80.841701 107.788935 80.841701 107.788935 80.841701 188.630636 80.841701 188.630636 80.841701 188.630636 80.841701 188.630636 134.736168 188.630636 134.736168 188.630636 134.736168 107.788935 134.736168 107.788935 134.736168 78.012242 134.736168 53.894468 158.853943 53.894468 188.630636 53.894468 188.630636 53.894468 296.419571 53.894468 296.419571 53.894468 296.419571 1077.889348 296.419571 1077.889348 296.419571 1077.889348 296.419571 1077.889348 188.630636 1077.889348 188.630636 1077.889348 158.853943 1053.771573 134.736168 1023.99488 134.736168 1023.99488 134.736168 943.153179 134.736168 943.153179 134.736168 943.153179 134.736168 943.153179 80.841701 943.153179 80.841701 943.153179 80.841701 1023.99488 80.841701 1023.99488 80.841701 1083.521319 80.841701 1131.783815 129.104196 1131.783815 188.630636 1131.783815 188.630636 1131.783815 296.419571 1131.783815 296.419571 1131.783815 296.419571 1131.783815 350.314037 1131.783815 350.314037 1131.783815 350.314037 1131.783815 916.205945 1131.783815 916.205945 1131.783815 975.732384 1083.521319 1023.99488 1023.99488 1023.99488ZM1077.889348 350.314037C1077.889348 350.314037 53.894468 350.314037 53.894468 350.314037 53.894468 350.314037 53.894468 916.205945 53.894468 916.205945 53.894468 945.982638 78.012242 970.100412 107.788935 970.100412 107.788935 970.100412 1023.99488 970.100412 1023.99488 970.100412 1053.771573 970.100412 1077.889348 945.982638 1077.889348 916.205945 1077.889348 916.205945 1077.889348 350.314037 1077.889348 350.314037ZM794.943393 628.086123C794.943393 628.086123 791.359411 633.718094 791.359411 633.718094 788.044902 640.023747 784.27229 645.871297 780.122415 651.449375 780.122415 651.449375 646.733608 861.476114 646.733608 861.476114 646.733608 861.476114 589.120422 861.476114 589.120422 861.476114 589.120422 861.476114 687.477826 700.601129 687.477826 700.601129 687.370037 700.601129 687.262248 700.628076 687.154459 700.628076 620.190583 700.628076 565.891908 640.29322 565.891908 565.891908 565.891908 491.490596 620.190583 431.155739 687.154459 431.155739 754.118334 431.155739 808.417011 491.490596 808.417011 565.891908 808.417011 588.312005 803.027564 609.142217 794.296661 627.735808 794.296661 627.735808 794.943393 628.086123 794.943393 628.086123ZM687.154459 485.050207C649.940329 485.050207 619.786375 521.240341 619.786375 565.891908 619.786375 610.543473 649.940329 646.733608 687.154459 646.733608 706.206153 646.733608 723.317646 637.16734 735.578638 621.915206 735.578638 621.915206 745.360484 605.908549 745.360484 605.908549 751.019403 594.078714 754.522543 580.524255 754.522543 565.891908 754.522543 521.240341 724.368589 485.050207 687.154459 485.050207ZM376.937904 506.93136C376.937904 506.93136 296.203993 579.257736 296.203993 579.257736 296.203993 579.257736 296.203993 512.266913 296.203993 512.266913 296.203993 512.266913 378.608633 431.856367 378.608633 431.856367 378.608633 431.856367 430.670689 431.856367 430.670689 431.856367 430.670689 431.856367 430.670689 861.583903 430.670689 861.583903 430.670689 861.583903 376.937904 861.583903 376.937904 861.583903 376.937904 861.583903 376.937904 506.93136 376.937904 506.93136ZM889.258712 215.577869C874.383839 215.577869 862.311477 203.505508 862.311477 188.630636 862.311477 188.630636 862.311477 26.947233 862.311477 26.947233 862.311477 12.072361 874.383839 0 889.258712 0 904.133584 0 916.205945 12.072361 916.205945 26.947233 916.205945 26.947233 916.205945 188.630636 916.205945 188.630636 916.205945 203.505508 904.133584 215.577869 889.258712 215.577869ZM296.419571 80.841701C296.419571 80.841701 835.364244 80.841701 835.364244 80.841701 835.364244 80.841701 835.364244 134.736168 835.364244 134.736168 835.364244 134.736168 296.419571 134.736168 296.419571 134.736168 296.419571 134.736168 296.419571 80.841701 296.419571 80.841701ZM242.525103 215.577869C227.65023 215.577869 215.577869 203.505508 215.577869 188.630636 215.577869 188.630636 215.577869 26.947233 215.577869 26.947233 215.577869 12.072361 227.65023 0 242.525103 0 257.399976 0 269.472337 12.072361 269.472337 26.947233 269.472337 26.947233 269.472337 188.630636 269.472337 188.630636 269.472337 203.505508 257.399976 215.577869 242.525103 215.577869Z" p-id="47756"></path></svg>