<?xml version="1.0" standalone="no"?><!DOCTYPE svg PUBLIC "-//W3C//DTD SVG 1.1//EN" "http://www.w3.org/Graphics/SVG/1.1/DTD/svg11.dtd"><svg t="1615349493614" class="icon" viewBox="0 0 1024 1024" version="1.1" xmlns="http://www.w3.org/2000/svg" p-id="56263" xmlns:xlink="http://www.w3.org/1999/xlink" width="200" height="200"><defs><style type="text/css"></style></defs><path d="M137.6 512l204.8-204.8c12.8-12.8 12.8-32 0-44.8-12.8-12.8-32-12.8-44.8 0L70.4 489.6c-6.4 6.4-9.6 12.8-9.6 22.4 0 9.6 3.2 16 9.6 22.4l227.2 227.2c12.8 12.8 32 12.8 44.8 0 12.8-12.8 12.8-32 0-44.8L137.6 512z m464-339.2c-16-3.2-35.2 6.4-38.4 22.4L396.8 812.8c-3.2 16 6.4 35.2 22.4 38.4 16 3.2 35.2-6.4 38.4-22.4L624 211.2c6.4-16-3.2-35.2-22.4-38.4z m352 316.8L726.4 262.4c-12.8-12.8-32-12.8-44.8 0-12.8 12.8-12.8 32 0 44.8L886.4 512 681.6 716.8c-12.8 12.8-12.8 32 0 44.8 12.8 12.8 32 12.8 44.8 0l227.2-227.2c6.4-6.4 9.6-16 9.6-22.4 0-9.6-3.2-16-9.6-22.4z" p-id="56264"></path></svg>
