<?xml version="1.0" standalone="no"?><!DOCTYPE svg PUBLIC "-//W3C//DTD SVG 1.1//EN" "http://www.w3.org/Graphics/SVG/1.1/DTD/svg11.dtd"><svg t="1637920503900" class="icon" viewBox="0 0 1024 1024" version="1.1" xmlns="http://www.w3.org/2000/svg" p-id="4875" xmlns:xlink="http://www.w3.org/1999/xlink" width="200" height="200"><defs><style type="text/css"></style></defs><path d="M332.48 500.864a25.6 25.6 0 1 0 0-51.2H192.384v-184.96a115.2 115.2 0 0 0 89.6-112.128c0-63.488-51.712-115.2-115.2-115.2s-115.2 51.712-115.2 115.2a115.2 115.2 0 0 0 89.6 112.128v696.192a25.6 25.6 0 1 0 51.2 0v-141.12c2.304 0.192 4.48 0.512 6.912 0.512h133.184a25.6 25.6 0 1 0 0-51.2H199.296c-3.456 0-5.504-0.448-6.08-0.256a29.184 29.184 0 0 1-0.896-8.576V500.8h140.16zM102.784 152.64c0-35.264 28.736-64 64-64s64 28.736 64 64-28.736 64-64 64-64-28.736-64-64zM921.216 360.064h-486.4c-28.224 0-51.2 22.976-51.2 51.2v128c0 28.224 22.976 51.2 51.2 51.2h486.4c28.224 0 51.2-22.976 51.2-51.2v-128c0-28.224-22.976-51.2-51.2-51.2z m-486.336 179.2v-128h486.4v128h-486.4zM921.216 679.616h-486.4c-28.224 0-51.2 22.976-51.2 51.2v128c0 28.224 22.976 51.2 51.2 51.2h486.4c28.224 0 51.2-22.976 51.2-51.2v-128c0-28.224-22.976-51.2-51.2-51.2z m-486.336 179.2v-128h486.4v128h-486.4z" p-id="4876"></path></svg>