<?xml version="1.0" standalone="no"?><!DOCTYPE svg PUBLIC "-//W3C//DTD SVG 1.1//EN" "http://www.w3.org/Graphics/SVG/1.1/DTD/svg11.dtd"><svg t="1615197291815" class="icon" viewBox="0 0 1024 1024" version="1.1" xmlns="http://www.w3.org/2000/svg" p-id="24992" xmlns:xlink="http://www.w3.org/1999/xlink" width="200" height="200"><defs><style type="text/css"></style></defs><path d="M512 65.983389c-245.919634 0-446.016611 200.095256-446.016611 446.016611 0 245.952318 200.064292 446.016611 446.016611 446.016611S958.016611 757.952318 958.016611 512C958.016611 266.080366 757.952318 65.983389 512 65.983389zM512 894.016611c-210.655557 0-382.016611-171.392017-382.016611-382.016611 0-210.655557 171.359333-382.016611 382.016611-382.016611 210.624593 0 382.016611 171.359333 382.016611 382.016611C894.016611 722.624593 722.624593 894.016611 512 894.016611zM512 352.00086c-88.223841 0-160.00086 71.775299-160.00086 159.99914s71.775299 160.00086 160.00086 160.00086 160.00086-71.775299 160.00086-160.00086S600.223841 352.00086 512 352.00086z" p-id="24993"></path></svg>