<?xml version="1.0" standalone="no"?><!DOCTYPE svg PUBLIC "-//W3C//DTD SVG 1.1//EN" "http://www.w3.org/Graphics/SVG/1.1/DTD/svg11.dtd"><svg t="1615196523892" class="icon" viewBox="0 0 1024 1024" version="1.1" xmlns="http://www.w3.org/2000/svg" p-id="11328" xmlns:xlink="http://www.w3.org/1999/xlink" width="200" height="200"><defs><style type="text/css"></style></defs><path d="M141.074286 906.496h741.851428c89.581714 0 134.582857-44.562286 134.582857-132.845714V250.331429c0-88.283429-45.001143-132.845714-134.582857-132.845715H141.074286C51.931429 117.504 6.491429 161.645714 6.491429 250.331429V773.668571c0 88.704 45.44 132.845714 134.582857 132.845715z m1.28-68.992c-42.861714 0-66.852571-22.710857-66.852572-67.291429V253.805714c0-44.580571 23.990857-67.291429 66.852572-67.291428h739.291428c42.422857 0 66.852571 22.710857 66.852572 67.291428V770.194286c0 44.580571-24.429714 67.291429-66.852572 67.291428z" p-id="11329"></path></svg>