<?xml version="1.0" standalone="no"?><!DOCTYPE svg PUBLIC "-//W3C//DTD SVG 1.1//EN" "http://www.w3.org/Graphics/SVG/1.1/DTD/svg11.dtd"><svg t="1615197848232" class="icon" viewBox="0 0 1024 1024" version="1.1" xmlns="http://www.w3.org/2000/svg" p-id="40340" xmlns:xlink="http://www.w3.org/1999/xlink" width="200" height="200"><defs><style type="text/css"></style></defs><path d="M374.784 649.514667a32 32 0 0 1 3.072 41.685333l-3.114667 3.584L225.28 843.946667a32 32 0 0 1-37.845333 5.504l-3.968-2.56-85.333334-64a32 32 0 0 1 34.432-53.76l3.968 2.56 63.146667 47.36 129.834667-129.621334a32 32 0 0 1 45.269333 0.042667zM906.154667 725.333333a32 32 0 0 1 4.309333 63.701334l-4.309333 0.298666h-448a32 32 0 0 1-4.352-63.744l4.352-0.256h448z m0.512-256a32 32 0 0 1 4.352 63.701334l-4.352 0.298666h-448a32 32 0 0 1-4.352-63.701333L458.666667 469.333333h448zM374.826667 137.557333a32 32 0 0 1 2.986666 41.685334l-3.114666 3.584L224.853333 332.032a32 32 0 0 1-37.888 5.418667l-3.925333-2.56-84.906667-64a32 32 0 0 1 34.517334-53.674667l3.968 2.56 62.72 47.274667 130.261333-129.578667a32 32 0 0 1 45.226667 0.085333z m531.328 75.818667a32 32 0 0 1 4.309333 63.701333l-4.309333 0.298667H459.349333a32 32 0 0 1-4.352-63.744l4.352-0.256h446.805334z" p-id="40341"></path></svg>