<?xml version="1.0" standalone="no"?><!DOCTYPE svg PUBLIC "-//W3C//DTD SVG 1.1//EN" "http://www.w3.org/Graphics/SVG/1.1/DTD/svg11.dtd"><svg t="1615359992022" class="icon" viewBox="0 0 1024 1024" version="1.1" xmlns="http://www.w3.org/2000/svg" p-id="71129" xmlns:xlink="http://www.w3.org/1999/xlink" width="200" height="200"><defs><style type="text/css"></style></defs><path d="M512 102.4c-212.48 0-384 171.52-384 384s171.52 384 384 384 384-171.52 384-384-171.52-384-384-384z m25.6 716.8v-128c0-15.36-10.24-25.6-25.6-25.6s-25.6 10.24-25.6 25.6v128C322.56 806.4 192 675.84 179.2 512h128c15.36 0 25.6-10.24 25.6-25.6s-10.24-25.6-25.6-25.6h-128C192 296.96 322.56 166.4 486.4 156.16V281.6c0 15.36 10.24 25.6 25.6 25.6s25.6-10.24 25.6-25.6V156.16C701.44 168.96 832 299.52 844.8 460.8h-128c-15.36 0-25.6 10.24-25.6 25.6s10.24 25.6 25.6 25.6h128C832 675.84 701.44 806.4 537.6 819.2z" fill="#333333" p-id="71130"></path></svg>