<?xml version="1.0" standalone="no"?><!DOCTYPE svg PUBLIC "-//W3C//DTD SVG 1.1//EN" "http://www.w3.org/Graphics/SVG/1.1/DTD/svg11.dtd"><svg t="1616146134710" class="icon" viewBox="0 0 1024 1024" version="1.1" xmlns="http://www.w3.org/2000/svg" p-id="97354" xmlns:xlink="http://www.w3.org/1999/xlink" width="300" height="300"><defs><style type="text/css"></style></defs><path d="M512 106.666667H112a5.333333 5.333333 0 0 0-5.333333 5.333333v800a5.333333 5.333333 0 0 0 5.333333 5.333333h800a5.333333 5.333333 0 0 0 5.333333-5.333333V112a5.333333 5.333333 0 0 0-5.333333-5.333333z m0 74.666666h325.333333a5.333333 5.333333 0 0 1 5.333334 5.333334v160a5.333333 5.333333 0 0 1-5.333334 5.333333H186.666667a5.333333 5.333333 0 0 1-5.333334-5.333333V186.666667a5.333333 5.333333 0 0 1 5.333334-5.333334z m85.333333 250.666667v405.333333a5.333333 5.333333 0 0 1-5.333333 5.333334H432a5.333333 5.333333 0 0 1-5.333333-5.333334V432a5.333333 5.333333 0 0 1 5.333333-5.333333h160a5.333333 5.333333 0 0 1 5.333333 5.333333z m-410.666666-5.333333h160a5.333333 5.333333 0 0 1 5.333333 5.333333v405.333333a5.333333 5.333333 0 0 1-5.333333 5.333334H186.666667a5.333333 5.333333 0 0 1-5.333334-5.333334V432a5.333333 5.333333 0 0 1 5.333334-5.333333z m485.333333 410.666666V432a5.333333 5.333333 0 0 1 5.333333-5.333333h160a5.333333 5.333333 0 0 1 5.333334 5.333333v405.333333a5.333333 5.333333 0 0 1-5.333334 5.333334h-160a5.333333 5.333333 0 0 1-5.333333-5.333334z" p-id="97355"></path></svg>