<?xml version="1.0" standalone="no"?><!DOCTYPE svg PUBLIC "-//W3C//DTD SVG 1.1//EN" "http://www.w3.org/Graphics/SVG/1.1/DTD/svg11.dtd"><svg t="1615196859629" class="icon" viewBox="0 0 1024 1024" version="1.1" xmlns="http://www.w3.org/2000/svg" p-id="12939" xmlns:xlink="http://www.w3.org/1999/xlink" width="200" height="200"><defs><style type="text/css"></style></defs><path d="M896.4 173.1H128.9c-35.2 0-49 13.8-49 49v575.6c0 35.2 13.8 49 49 49h767.5c35.2 0 49-13.8 49-49V222.1c0-35.2-13.8-49-49-49z m0 592.6c0 16-12.8 32-32 32H160.9c-19.2 0-32-12.8-32-32V254.1c0-16 12.8-32 32-32h703.5c19.2 0 32 12.8 32 32v511.6z" p-id="12940"></path><path d="M710.2 766.7h141.5c8.1 0 14.7-6.6 14.7-14.7V610.4c0-1.3-1.6-2-2.6-1.1L709.1 764.1c-1 1-0.3 2.6 1.1 2.6zM207.2 594.3h-13.5c-10 0-18.2-8.2-18.2-18.2V291.8c0-10.2 8.4-18.6 18.6-18.6h12.8c10.2 0 18.6 8.4 18.6 18.6v284.3c-0.1 10-8.3 18.2-18.3 18.2z" p-id="12941"></path></svg>