<?xml version="1.0" standalone="no"?><!DOCTYPE svg PUBLIC "-//W3C//DTD SVG 1.1//EN" "http://www.w3.org/Graphics/SVG/1.1/DTD/svg11.dtd"><svg t="1615176644441" class="icon" viewBox="0 0 1024 1024" version="1.1" xmlns="http://www.w3.org/2000/svg" p-id="3382" xmlns:xlink="http://www.w3.org/1999/xlink" width="200" height="200"><defs><style type="text/css"></style></defs><path d="M609.206 396.656h-415.702l201.87-199.152c17.787-17.787 17.787-43.185 0-60.973s-41.555-18.641-59.42-0.778l-273.097 266.804c-17.787 17.787-17.787 41.399 0 59.186l273.173 267.115c17.787 17.787 41.555 17.787 59.42-0.078 17.787-17.787 17.787-41.166 0-58.953l-201.948-195.501h415.702c166.219 0 311.155 129.712 311.155 290.029v41.555c0 23.769 15.069 41.555 38.836 41.555s38.836-17.787 38.836-41.555v-41.555c0-207.852-175.073-367.7-388.828-367.7z" p-id="3383"></path></svg>